{
    "asset" : {
        "generator" : "Khronos glTF Blender I/O v3.4.50",
        "version" : "2.0"
    },
    "extensionsUsed" : [
        "KHR_materials_specular",
        "KHR_materials_ior"
    ],
    "scene" : 0,
    "scenes" : [
        {
            "name" : "Scene",
            "nodes" : [
                0
            ]
        }
    ],
    "nodes" : [
        {
            "mesh" : 0,
            "name" : "Sphere",
            "translation" : [
                0.008615851402282715,
                -0.04460716247558594,
                -0.014896392822265625
            ]
        }
    ],
    "materials" : [
        {
            "doubleSided" : true,
            "name" : "Material.001",
            "pbrMetallicRoughness" : {
                "baseColorFactor" : [
                    0.8000000715255737,
                    0.3054952621459961,
                    0.18782687187194824,
                    1
                ],
                "metallicFactor" : 0,
                "roughnessFactor" : 0.5
            }
        },
        {
            "doubleSided" : true,
            "name" : "Material.007",
            "pbrMetallicRoughness" : {
                "baseColorFactor" : [
                    0,
                    0,
                    0,
                    1
                ],
                "metallicFactor" : 0,
                "roughnessFactor" : 0
            }
        },
        {
            "doubleSided" : true,
            "extensions" : {
                "KHR_materials_specular" : {
                    "specularColorFactor" : [
                        1.0563319395899768,
                        1.0563319395899768,
                        1.0563319395899768
                    ]
                },
                "KHR_materials_ior" : {
                    "ior" : 1.4500000476837158
                }
            },
            "name" : "Material.006",
            "pbrMetallicRoughness" : {
                "baseColorFactor" : [
                    0.10905437916517258,
                    0.21369297802448273,
                    0.8000000715255737,
                    1
                ],
                "metallicFactor" : 0.7818182706832886,
                "roughnessFactor" : 0.2136363685131073
            }
        },
        {
            "doubleSided" : true,
            "name" : "Material.004",
            "pbrMetallicRoughness" : {
                "baseColorFactor" : [
                    0.8000000715255737,
                    1,
                    0.20000000298023224,
                    1
                ],
                "metallicFactor" : 0,
                "roughnessFactor" : 0
            }
        },
        {
            "doubleSided" : true,
            "name" : "Material.003",
            "pbrMetallicRoughness" : {
                "baseColorFactor" : [
                    1,
                    0.38316866755485535,
                    0,
                    1
                ],
                "metallicFactor" : 0.9727272987365723,
                "roughnessFactor" : 0
            }
        },
        {
            "doubleSided" : true,
            "name" : "Material.005",
            "pbrMetallicRoughness" : {
                "baseColorFactor" : [
                    0.8000000715255737,
                    0.09155618399381638,
                    0.43750470876693726,
                    1
                ],
                "metallicFactor" : 0.9727272987365723,
                "roughnessFactor" : 0.968181848526001
            }
        },
        {
            "doubleSided" : true,
            "name" : "Material.002",
            "pbrMetallicRoughness" : {
                "baseColorFactor" : [
                    0.20299959182739258,
                    0.0694042220711708,
                    0.01821192167699337,
                    1
                ],
                "metallicFactor" : 0.22727274894714355,
                "roughnessFactor" : 0.5636364221572876
            }
        }
    ],
    "meshes" : [
        {
            "name" : "Sphere",
            "primitives" : [
                {
                    "attributes" : {
                        "POSITION" : 0,
                        "TEXCOORD_0" : 1,
                        "NORMAL" : 2,
                        "TANGENT" : 3
                    },
                    "indices" : 4,
                    "material" : 0
                },
                {
                    "attributes" : {
                        "POSITION" : 5,
                        "TEXCOORD_0" : 6,
                        "NORMAL" : 7,
                        "TANGENT" : 8
                    },
                    "indices" : 9,
                    "material" : 1
                },
                {
                    "attributes" : {
                        "POSITION" : 10,
                        "TEXCOORD_0" : 11,
                        "NORMAL" : 12,
                        "TANGENT" : 13
                    },
                    "indices" : 14,
                    "material" : 2
                },
                {
                    "attributes" : {
                        "POSITION" : 15,
                        "TEXCOORD_0" : 16,
                        "NORMAL" : 17,
                        "TANGENT" : 18
                    },
                    "indices" : 19,
                    "material" : 3
                },
                {
                    "attributes" : {
                        "POSITION" : 20,
                        "TEXCOORD_0" : 21,
                        "NORMAL" : 22,
                        "TANGENT" : 23
                    },
                    "indices" : 19,
                    "material" : 4
                },
                {
                    "attributes" : {
                        "POSITION" : 24,
                        "TEXCOORD_0" : 25,
                        "NORMAL" : 26,
                        "TANGENT" : 27
                    },
                    "indices" : 28,
                    "material" : 5
                },
                {
                    "attributes" : {
                        "POSITION" : 29,
                        "TEXCOORD_0" : 30,
                        "NORMAL" : 31,
                        "TANGENT" : 32
                    },
                    "indices" : 33,
                    "material" : 6
                }
            ]
        }
    ],
    "accessors" : [
        {
            "bufferView" : 0,
            "componentType" : 5126,
            "count" : 4,
            "max" : [
                12.735603332519531,
                -0.006463527679443359,
                12.4786958694458
            ],
            "min" : [
                -12.609434127807617,
                -0.006463527679443359,
                -12.866341590881348
            ],
            "type" : "VEC3"
        },
        {
            "bufferView" : 1,
            "componentType" : 5126,
            "count" : 4,
            "type" : "VEC2"
        },
        {
            "bufferView" : 2,
            "componentType" : 5126,
            "count" : 4,
            "type" : "VEC3"
        },
        {
            "bufferView" : 3,
            "componentType" : 5126,
            "count" : 4,
            "type" : "VEC4"
        },
        {
            "bufferView" : 4,
            "componentType" : 5123,
            "count" : 6,
            "type" : "SCALAR"
        },
        {
            "bufferView" : 5,
            "componentType" : 5126,
            "count" : 144,
            "max" : [
                12.838529586791992,
                5.491857051849365,
                12.805120468139648
            ],
            "min" : [
                -12.703182220458984,
                -0.02442026138305664,
                -12.854134559631348
            ],
            "type" : "VEC3"
        },
        {
            "bufferView" : 6,
            "componentType" : 5126,
            "count" : 144,
            "type" : "VEC2"
        },
        {
            "bufferView" : 7,
            "componentType" : 5126,
            "count" : 144,
            "type" : "VEC3"
        },
        {
            "bufferView" : 8,
            "componentType" : 5126,
            "count" : 144,
            "type" : "VEC4"
        },
        {
            "bufferView" : 9,
            "componentType" : 5123,
            "count" : 180,
            "type" : "SCALAR"
        },
        {
            "bufferView" : 10,
            "componentType" : 5126,
            "count" : 24,
            "max" : [
                -7.301212787628174,
                1.9529850482940674,
                -0.7136569023132324
            ],
            "min" : [
                -9.301212310791016,
                -0.047014713287353516,
                -9.765329360961914
            ],
            "type" : "VEC3"
        },
        {
            "bufferView" : 11,
            "componentType" : 5126,
            "count" : 24,
            "type" : "VEC2"
        },
        {
            "bufferView" : 12,
            "componentType" : 5126,
            "count" : 24,
            "type" : "VEC3"
        },
        {
            "bufferView" : 13,
            "componentType" : 5126,
            "count" : 24,
            "type" : "VEC4"
        },
        {
            "bufferView" : 14,
            "componentType" : 5123,
            "count" : 36,
            "type" : "SCALAR"
        },
        {
            "bufferView" : 15,
            "componentType" : 5126,
            "count" : 28,
            "max" : [
                3.9712181091308594,
                1.9529850482940674,
                -7.717567443847656
            ],
            "min" : [
                -3.7637763023376465,
                -0.047014713287353516,
                -9.737310409545898
            ],
            "type" : "VEC3"
        },
        {
            "bufferView" : 16,
            "componentType" : 5126,
            "count" : 28,
            "type" : "VEC2"
        },
        {
            "bufferView" : 17,
            "componentType" : 5126,
            "count" : 28,
            "type" : "VEC3"
        },
        {
            "bufferView" : 18,
            "componentType" : 5126,
            "count" : 28,
            "type" : "VEC4"
        },
        {
            "bufferView" : 19,
            "componentType" : 5123,
            "count" : 36,
            "type" : "SCALAR"
        },
        {
            "bufferView" : 20,
            "componentType" : 5126,
            "count" : 28,
            "max" : [
                3.849308967590332,
                1.9529850482940674,
                -0.908848762512207
            ],
            "min" : [
                -3.885685443878174,
                -0.047014713287353516,
                -2.928591728210449
            ],
            "type" : "VEC3"
        },
        {
            "bufferView" : 21,
            "componentType" : 5126,
            "count" : 28,
            "type" : "VEC2"
        },
        {
            "bufferView" : 22,
            "componentType" : 5126,
            "count" : 28,
            "type" : "VEC3"
        },
        {
            "bufferView" : 23,
            "componentType" : 5126,
            "count" : 28,
            "type" : "VEC4"
        },
        {
            "bufferView" : 24,
            "componentType" : 5126,
            "count" : 28,
            "max" : [
                8.786733627319336,
                1.9529850482940674,
                -0.7136569023132324
            ],
            "min" : [
                6.786733150482178,
                -0.047014713287353516,
                -9.765329360961914
            ],
            "type" : "VEC3"
        },
        {
            "bufferView" : 25,
            "componentType" : 5126,
            "count" : 28,
            "type" : "VEC2"
        },
        {
            "bufferView" : 26,
            "componentType" : 5126,
            "count" : 28,
            "type" : "VEC3"
        },
        {
            "bufferView" : 27,
            "componentType" : 5126,
            "count" : 28,
            "type" : "VEC4"
        },
        {
            "bufferView" : 28,
            "componentType" : 5123,
            "count" : 36,
            "type" : "SCALAR"
        },
        {
            "bufferView" : 29,
            "componentType" : 5126,
            "count" : 208,
            "max" : [
                6.742544651031494,
                4.580915927886963,
                8.907144546508789
            ],
            "min" : [
                -3.510488986968994,
                -0.15987348556518555,
                3.7054269313812256
            ],
            "type" : "VEC3"
        },
        {
            "bufferView" : 30,
            "componentType" : 5126,
            "count" : 208,
            "type" : "VEC2"
        },
        {
            "bufferView" : 31,
            "componentType" : 5126,
            "count" : 208,
            "type" : "VEC3"
        },
        {
            "bufferView" : 32,
            "componentType" : 5126,
            "count" : 208,
            "type" : "VEC4"
        },
        {
            "bufferView" : 33,
            "componentType" : 5123,
            "count" : 288,
            "type" : "SCALAR"
        }
    ],
    "bufferViews" : [
        {
            "buffer" : 0,
            "byteLength" : 48,
            "byteOffset" : 0,
            "target" : 34962
        },
        {
            "buffer" : 0,
            "byteLength" : 32,
            "byteOffset" : 48,
            "target" : 34962
        },
        {
            "buffer" : 0,
            "byteLength" : 48,
            "byteOffset" : 80,
            "target" : 34962
        },
        {
            "buffer" : 0,
            "byteLength" : 64,
            "byteOffset" : 128,
            "target" : 34962
        },
        {
            "buffer" : 0,
            "byteLength" : 12,
            "byteOffset" : 192,
            "target" : 34963
        },
        {
            "buffer" : 0,
            "byteLength" : 1728,
            "byteOffset" : 204,
            "target" : 34962
        },
        {
            "buffer" : 0,
            "byteLength" : 1152,
            "byteOffset" : 1932,
            "target" : 34962
        },
        {
            "buffer" : 0,
            "byteLength" : 1728,
            "byteOffset" : 3084,
            "target" : 34962
        },
        {
            "buffer" : 0,
            "byteLength" : 2304,
            "byteOffset" : 4812,
            "target" : 34962
        },
        {
            "buffer" : 0,
            "byteLength" : 360,
            "byteOffset" : 7116,
            "target" : 34963
        },
        {
            "buffer" : 0,
            "byteLength" : 288,
            "byteOffset" : 7476,
            "target" : 34962
        },
        {
            "buffer" : 0,
            "byteLength" : 192,
            "byteOffset" : 7764,
            "target" : 34962
        },
        {
            "buffer" : 0,
            "byteLength" : 288,
            "byteOffset" : 7956,
            "target" : 34962
        },
        {
            "buffer" : 0,
            "byteLength" : 384,
            "byteOffset" : 8244,
            "target" : 34962
        },
        {
            "buffer" : 0,
            "byteLength" : 72,
            "byteOffset" : 8628,
            "target" : 34963
        },
        {
            "buffer" : 0,
            "byteLength" : 336,
            "byteOffset" : 8700,
            "target" : 34962
        },
        {
            "buffer" : 0,
            "byteLength" : 224,
            "byteOffset" : 9036,
            "target" : 34962
        },
        {
            "buffer" : 0,
            "byteLength" : 336,
            "byteOffset" : 9260,
            "target" : 34962
        },
        {
            "buffer" : 0,
            "byteLength" : 448,
            "byteOffset" : 9596,
            "target" : 34962
        },
        {
            "buffer" : 0,
            "byteLength" : 72,
            "byteOffset" : 10044,
            "target" : 34963
        },
        {
            "buffer" : 0,
            "byteLength" : 336,
            "byteOffset" : 10116,
            "target" : 34962
        },
        {
            "buffer" : 0,
            "byteLength" : 224,
            "byteOffset" : 10452,
            "target" : 34962
        },
        {
            "buffer" : 0,
            "byteLength" : 336,
            "byteOffset" : 10676,
            "target" : 34962
        },
        {
            "buffer" : 0,
            "byteLength" : 448,
            "byteOffset" : 11012,
            "target" : 34962
        },
        {
            "buffer" : 0,
            "byteLength" : 336,
            "byteOffset" : 11460,
            "target" : 34962
        },
        {
            "buffer" : 0,
            "byteLength" : 224,
            "byteOffset" : 11796,
            "target" : 34962
        },
        {
            "buffer" : 0,
            "byteLength" : 336,
            "byteOffset" : 12020,
            "target" : 34962
        },
        {
            "buffer" : 0,
            "byteLength" : 448,
            "byteOffset" : 12356,
            "target" : 34962
        },
        {
            "buffer" : 0,
            "byteLength" : 72,
            "byteOffset" : 12804,
            "target" : 34963
        },
        {
            "buffer" : 0,
            "byteLength" : 2496,
            "byteOffset" : 12876,
            "target" : 34962
        },
        {
            "buffer" : 0,
            "byteLength" : 1664,
            "byteOffset" : 15372,
            "target" : 34962
        },
        {
            "buffer" : 0,
            "byteLength" : 2496,
            "byteOffset" : 17036,
            "target" : 34962
        },
        {
            "buffer" : 0,
            "byteLength" : 3328,
            "byteOffset" : 19532,
            "target" : 34962
        },
        {
            "buffer" : 0,
            "byteLength" : 576,
            "byteOffset" : 22860,
            "target" : 34963
        }
    ],
    "buffers" : [
        {
            "byteLength" : 23436,
            "uri" : "level3.bin"
        }
    ]
}
