{
    "asset" : {
        "generator" : "Khronos glTF Blender I/O v3.4.50",
        "version" : "2.0"
    },
    "scene" : 0,
    "scenes" : [
        {
            "name" : "Scene",
            "nodes" : [
                0
            ]
        }
    ],
    "nodes" : [
        {
            "mesh" : 0,
            "name" : "Cube.003"
        }
    ],
    "materials" : [
        {
            "doubleSided" : true,
            "name" : "Material.007",
            "pbrMetallicRoughness" : {
                "baseColorFactor" : [
                    0.8000000715255737,
                    0.28148791193962097,
                    0.0059279510751366615,
                    1
                ],
                "metallicFactor" : 0.9818181395530701,
                "roughnessFactor" : 0.09545454382896423
            }
        },
        {
            "doubleSided" : true,
            "name" : "Material.006",
            "pbrMetallicRoughness" : {
                "baseColorFactor" : [
                    0.8000000715255737,
                    0.28148791193962097,
                    0.0059279510751366615,
                    1
                ],
                "metallicFactor" : 0.9818181395530701,
                "roughnessFactor" : 0.09545454382896423
            }
        },
        {
            "doubleSided" : true,
            "name" : "Material.008",
            "pbrMetallicRoughness" : {
                "baseColorFactor" : [
                    0.8000000715255737,
                    0.28148791193962097,
                    0.0059279510751366615,
                    1
                ],
                "metallicFactor" : 0.9818181395530701,
                "roughnessFactor" : 0.09545454382896423
            }
        },
        {
            "doubleSided" : true,
            "name" : "Material.003",
            "pbrMetallicRoughness" : {
                "baseColorFactor" : [
                    0.12177348136901855,
                    0.02835449017584324,
                    7.100752554833889e-05,
                    1
                ],
                "metallicFactor" : 0.8272727131843567,
                "roughnessFactor" : 0.8409090638160706
            }
        },
        {
            "doubleSided" : true,
            "name" : "Material.001",
            "pbrMetallicRoughness" : {
                "baseColorFactor" : [
                    0.02442629635334015,
                    0.02442629635334015,
                    0.02442629635334015,
                    1
                ],
                "metallicFactor" : 0,
                "roughnessFactor" : 0.5
            }
        },
        {
            "doubleSided" : true,
            "name" : "Material.002",
            "pbrMetallicRoughness" : {
                "baseColorFactor" : [
                    10.0,
                    0.5,
                    0.6126108169555664,
                    0
                ],
                "metallicFactor" : 0,
                "roughnessFactor" : 0.5
            }
        },
        {
            "doubleSided" : true,
            "name" : "Material.004",
            "pbrMetallicRoughness" : {
                "baseColorFactor" : [
                    0.03546813130378723,
                    0.10834440588951111,
                    0.009457070380449295,
                    1
                ],
                "metallicFactor" : 0,
                "roughnessFactor" : 0.5
            }
        },
        {
            "doubleSided" : true,
            "name" : "Material.005",
            "pbrMetallicRoughness" : {
                "baseColorFactor" : [
                    0.03546813130378723,
                    0.10834440588951111,
                    0.009457070380449295,
                    1
                ],
                "metallicFactor" : 0,
                "roughnessFactor" : 0.5
            }
        }
    ],
    "meshes" : [
        {
            "name" : "Cube.014",
            "primitives" : [
                {
                    "attributes" : {
                        "POSITION" : 0,
                        "TEXCOORD_0" : 1,
                        "NORMAL" : 2,
                        "TANGENT" : 3
                    },
                    "indices" : 4,
                    "material" : 0
                },
                {
                    "attributes" : {
                        "POSITION" : 5,
                        "TEXCOORD_0" : 6,
                        "NORMAL" : 7,
                        "TANGENT" : 8
                    },
                    "indices" : 9,
                    "material" : 1
                },
                {
                    "attributes" : {
                        "POSITION" : 10,
                        "TEXCOORD_0" : 11,
                        "NORMAL" : 12,
                        "TANGENT" : 13
                    },
                    "indices" : 4,
                    "material" : 2
                },
                {
                    "attributes" : {
                        "POSITION" : 14,
                        "TEXCOORD_0" : 15,
                        "NORMAL" : 16,
                        "TANGENT" : 17
                    },
                    "indices" : 18,
                    "material" : 3
                },
                {
                    "attributes" : {
                        "POSITION" : 19,
                        "TEXCOORD_0" : 20,
                        "NORMAL" : 21,
                        "TANGENT" : 22
                    },
                    "indices" : 23,
                    "material" : 4
                },
                {
                    "attributes" : {
                        "POSITION" : 24,
                        "TEXCOORD_0" : 25,
                        "NORMAL" : 26,
                        "TANGENT" : 27
                    },
                    "indices" : 28,
                    "material" : 5
                },
                {
                    "attributes" : {
                        "POSITION" : 29,
                        "TEXCOORD_0" : 30,
                        "NORMAL" : 31,
                        "TANGENT" : 32
                    },
                    "indices" : 33,
                    "material" : 6
                },
                {
                    "attributes" : {
                        "POSITION" : 34,
                        "TEXCOORD_0" : 35,
                        "NORMAL" : 36,
                        "TANGENT" : 37
                    },
                    "indices" : 38,
                    "material" : 7
                }
            ]
        }
    ],
    "accessors" : [
        {
            "bufferView" : 0,
            "componentType" : 5126,
            "count" : 24,
            "max" : [
                6.917367935180664,
                1.541378378868103,
                -13.664623260498047
            ],
            "min" : [
                4.791905403137207,
                0.9220389127731323,
                -15.79008674621582
            ],
            "type" : "VEC3"
        },
        {
            "bufferView" : 1,
            "componentType" : 5126,
            "count" : 24,
            "type" : "VEC2"
        },
        {
            "bufferView" : 2,
            "componentType" : 5126,
            "count" : 24,
            "type" : "VEC3"
        },
        {
            "bufferView" : 3,
            "componentType" : 5126,
            "count" : 24,
            "type" : "VEC4"
        },
        {
            "bufferView" : 4,
            "componentType" : 5123,
            "count" : 36,
            "type" : "SCALAR"
        },
        {
            "bufferView" : 5,
            "componentType" : 5126,
            "count" : 182,
            "max" : [
                26.098365783691406,
                13.078861236572266,
                17.143173217773438
            ],
            "min" : [
                -11.468742370605469,
                -0.18074846267700195,
                -15.790087699890137
            ],
            "type" : "VEC3"
        },
        {
            "bufferView" : 6,
            "componentType" : 5126,
            "count" : 182,
            "type" : "VEC2"
        },
        {
            "bufferView" : 7,
            "componentType" : 5126,
            "count" : 182,
            "type" : "VEC3"
        },
        {
            "bufferView" : 8,
            "componentType" : 5126,
            "count" : 182,
            "type" : "VEC4"
        },
        {
            "bufferView" : 9,
            "componentType" : 5123,
            "count" : 240,
            "type" : "SCALAR"
        },
        {
            "bufferView" : 10,
            "componentType" : 5126,
            "count" : 24,
            "max" : [
                18.513254165649414,
                4.197103023529053,
                -13.66462516784668
            ],
            "min" : [
                16.38779067993164,
                3.577763557434082,
                -15.790087699890137
            ],
            "type" : "VEC3"
        },
        {
            "bufferView" : 11,
            "componentType" : 5126,
            "count" : 24,
            "type" : "VEC2"
        },
        {
            "bufferView" : 12,
            "componentType" : 5126,
            "count" : 24,
            "type" : "VEC3"
        },
        {
            "bufferView" : 13,
            "componentType" : 5126,
            "count" : 24,
            "type" : "VEC4"
        },
        {
            "bufferView" : 14,
            "componentType" : 5126,
            "count" : 4,
            "max" : [
                62.716094970703125,
                0,
                60.00701141357422
            ],
            "min" : [
                -62.64836883544922,
                0,
                -65.35745239257812
            ],
            "type" : "VEC3"
        },
        {
            "bufferView" : 15,
            "componentType" : 5126,
            "count" : 4,
            "type" : "VEC2"
        },
        {
            "bufferView" : 16,
            "componentType" : 5126,
            "count" : 4,
            "type" : "VEC3"
        },
        {
            "bufferView" : 17,
            "componentType" : 5126,
            "count" : 4,
            "type" : "VEC4"
        },
        {
            "bufferView" : 18,
            "componentType" : 5123,
            "count" : 6,
            "type" : "SCALAR"
        },
        {
            "bufferView" : 19,
            "componentType" : 5126,
            "count" : 546,
            "max" : [
                27.291828155517578,
                11.297223091125488,
                19.2655029296875
            ],
            "min" : [
                -14.1871337890625,
                -0.13778901100158691,
                -13.70810604095459
            ],
            "type" : "VEC3"
        },
        {
            "bufferView" : 20,
            "componentType" : 5126,
            "count" : 546,
            "type" : "VEC2"
        },
        {
            "bufferView" : 21,
            "componentType" : 5126,
            "count" : 546,
            "type" : "VEC3"
        },
        {
            "bufferView" : 22,
            "componentType" : 5126,
            "count" : 546,
            "type" : "VEC4"
        },
        {
            "bufferView" : 23,
            "componentType" : 5123,
            "count" : 690,
            "type" : "SCALAR"
        },
        {
            "bufferView" : 24,
            "componentType" : 5126,
            "count" : 172,
            "max" : [
                6.216516494750977,
                11.974818229675293,
                16.79184341430664
            ],
            "min" : [
                -12.719900131225586,
                1.968122959136963,
                -13.731800079345703
            ],
            "type" : "VEC3"
        },
        {
            "bufferView" : 25,
            "componentType" : 5126,
            "count" : 172,
            "type" : "VEC2"
        },
        {
            "bufferView" : 26,
            "componentType" : 5126,
            "count" : 172,
            "type" : "VEC3"
        },
        {
            "bufferView" : 27,
            "componentType" : 5126,
            "count" : 172,
            "type" : "VEC4"
        },
        {
            "bufferView" : 28,
            "componentType" : 5123,
            "count" : 222,
            "type" : "SCALAR"
        },
        {
            "bufferView" : 29,
            "componentType" : 5126,
            "count" : 162,
            "max" : [
                28.886690139770508,
                4.452931880950928,
                12.94394588470459
            ],
            "min" : [
                -11.32731819152832,
                -0.3193013668060303,
                -13.766307830810547
            ],
            "type" : "VEC3"
        },
        {
            "bufferView" : 30,
            "componentType" : 5126,
            "count" : 162,
            "type" : "VEC2"
        },
        {
            "bufferView" : 31,
            "componentType" : 5126,
            "count" : 162,
            "type" : "VEC3"
        },
        {
            "bufferView" : 32,
            "componentType" : 5126,
            "count" : 162,
            "type" : "VEC4"
        },
        {
            "bufferView" : 33,
            "componentType" : 5123,
            "count" : 228,
            "type" : "SCALAR"
        },
        {
            "bufferView" : 34,
            "componentType" : 5126,
            "count" : 36,
            "max" : [
                11.079601287841797,
                2.338624954223633,
                -2.5248756408691406
            ],
            "min" : [
                5.998631477355957,
                -0.3193013668060303,
                -4.735661506652832
            ],
            "type" : "VEC3"
        },
        {
            "bufferView" : 35,
            "componentType" : 5126,
            "count" : 36,
            "type" : "VEC2"
        },
        {
            "bufferView" : 36,
            "componentType" : 5126,
            "count" : 36,
            "type" : "VEC3"
        },
        {
            "bufferView" : 37,
            "componentType" : 5126,
            "count" : 36,
            "type" : "VEC4"
        },
        {
            "bufferView" : 38,
            "componentType" : 5123,
            "count" : 36,
            "type" : "SCALAR"
        }
    ],
    "bufferViews" : [
        {
            "buffer" : 0,
            "byteLength" : 288,
            "byteOffset" : 0,
            "target" : 34962
        },
        {
            "buffer" : 0,
            "byteLength" : 192,
            "byteOffset" : 288,
            "target" : 34962
        },
        {
            "buffer" : 0,
            "byteLength" : 288,
            "byteOffset" : 480,
            "target" : 34962
        },
        {
            "buffer" : 0,
            "byteLength" : 384,
            "byteOffset" : 768,
            "target" : 34962
        },
        {
            "buffer" : 0,
            "byteLength" : 72,
            "byteOffset" : 1152,
            "target" : 34963
        },
        {
            "buffer" : 0,
            "byteLength" : 2184,
            "byteOffset" : 1224,
            "target" : 34962
        },
        {
            "buffer" : 0,
            "byteLength" : 1456,
            "byteOffset" : 3408,
            "target" : 34962
        },
        {
            "buffer" : 0,
            "byteLength" : 2184,
            "byteOffset" : 4864,
            "target" : 34962
        },
        {
            "buffer" : 0,
            "byteLength" : 2912,
            "byteOffset" : 7048,
            "target" : 34962
        },
        {
            "buffer" : 0,
            "byteLength" : 480,
            "byteOffset" : 9960,
            "target" : 34963
        },
        {
            "buffer" : 0,
            "byteLength" : 288,
            "byteOffset" : 10440,
            "target" : 34962
        },
        {
            "buffer" : 0,
            "byteLength" : 192,
            "byteOffset" : 10728,
            "target" : 34962
        },
        {
            "buffer" : 0,
            "byteLength" : 288,
            "byteOffset" : 10920,
            "target" : 34962
        },
        {
            "buffer" : 0,
            "byteLength" : 384,
            "byteOffset" : 11208,
            "target" : 34962
        },
        {
            "buffer" : 0,
            "byteLength" : 48,
            "byteOffset" : 11592,
            "target" : 34962
        },
        {
            "buffer" : 0,
            "byteLength" : 32,
            "byteOffset" : 11640,
            "target" : 34962
        },
        {
            "buffer" : 0,
            "byteLength" : 48,
            "byteOffset" : 11672,
            "target" : 34962
        },
        {
            "buffer" : 0,
            "byteLength" : 64,
            "byteOffset" : 11720,
            "target" : 34962
        },
        {
            "buffer" : 0,
            "byteLength" : 12,
            "byteOffset" : 11784,
            "target" : 34963
        },
        {
            "buffer" : 0,
            "byteLength" : 6552,
            "byteOffset" : 11796,
            "target" : 34962
        },
        {
            "buffer" : 0,
            "byteLength" : 4368,
            "byteOffset" : 18348,
            "target" : 34962
        },
        {
            "buffer" : 0,
            "byteLength" : 6552,
            "byteOffset" : 22716,
            "target" : 34962
        },
        {
            "buffer" : 0,
            "byteLength" : 8736,
            "byteOffset" : 29268,
            "target" : 34962
        },
        {
            "buffer" : 0,
            "byteLength" : 1380,
            "byteOffset" : 38004,
            "target" : 34963
        },
        {
            "buffer" : 0,
            "byteLength" : 2064,
            "byteOffset" : 39384,
            "target" : 34962
        },
        {
            "buffer" : 0,
            "byteLength" : 1376,
            "byteOffset" : 41448,
            "target" : 34962
        },
        {
            "buffer" : 0,
            "byteLength" : 2064,
            "byteOffset" : 42824,
            "target" : 34962
        },
        {
            "buffer" : 0,
            "byteLength" : 2752,
            "byteOffset" : 44888,
            "target" : 34962
        },
        {
            "buffer" : 0,
            "byteLength" : 444,
            "byteOffset" : 47640,
            "target" : 34963
        },
        {
            "buffer" : 0,
            "byteLength" : 1944,
            "byteOffset" : 48084,
            "target" : 34962
        },
        {
            "buffer" : 0,
            "byteLength" : 1296,
            "byteOffset" : 50028,
            "target" : 34962
        },
        {
            "buffer" : 0,
            "byteLength" : 1944,
            "byteOffset" : 51324,
            "target" : 34962
        },
        {
            "buffer" : 0,
            "byteLength" : 2592,
            "byteOffset" : 53268,
            "target" : 34962
        },
        {
            "buffer" : 0,
            "byteLength" : 456,
            "byteOffset" : 55860,
            "target" : 34963
        },
        {
            "buffer" : 0,
            "byteLength" : 432,
            "byteOffset" : 56316,
            "target" : 34962
        },
        {
            "buffer" : 0,
            "byteLength" : 288,
            "byteOffset" : 56748,
            "target" : 34962
        },
        {
            "buffer" : 0,
            "byteLength" : 432,
            "byteOffset" : 57036,
            "target" : 34962
        },
        {
            "buffer" : 0,
            "byteLength" : 576,
            "byteOffset" : 57468,
            "target" : 34962
        },
        {
            "buffer" : 0,
            "byteLength" : 72,
            "byteOffset" : 58044,
            "target" : 34963
        }
    ],
    "buffers" : [
        {
            "byteLength" : 58116,
            "uri" : "op.bin"
        }
    ]
}
